<?xml version="1.0" encoding="UTF-8" standalone="no"?><svg xmlns="http://www.w3.org/2000/svg" xmlns:xlink="http://www.w3.org/1999/xlink" contentStyleType="text/css" height="675px" preserveAspectRatio="none" style="width:704px;height:675px;background:#FFFFFF;" version="1.1" viewBox="0 0 704 675" width="704px" zoomAndPan="magnify"><defs/><g><!--MD5=[a6b47dd42c1ad448e16844461e7657f4]
class Grille--><g id="elem_Grille"><rect codeLine="4" fill="#F1F1F1" height="171.2656" id="Grille" rx="2.5" ry="2.5" style="stroke:#181818;stroke-width:0.5;" width="208" x="486.5" y="60"/><ellipse cx="569.75" cy="76" fill="#ADD1B2" rx="11" ry="11" style="stroke:#181818;stroke-width:1.0;"/><path d="M572.5156,71.875 Q572.6719,71.6563 572.8594,71.5469 Q573.0469,71.4375 573.2656,71.4375 Q573.6406,71.4375 573.875,71.6953 Q574.1094,71.9531 574.1094,72.5625 L574.1094,74.0156 Q574.1094,74.625 573.875,74.8906 Q573.6406,75.1563 573.2656,75.1563 Q572.9219,75.1563 572.7188,74.9531 Q572.5156,74.7656 572.4063,74.25 Q572.3594,73.8906 572.1719,73.7031 Q571.8438,73.3281 571.2344,73.1094 Q570.625,72.8906 570,72.8906 Q569.2344,72.8906 568.6016,73.2188 Q567.9688,73.5469 567.4766,74.2969 Q566.9844,75.0469 566.9844,76.0781 L566.9844,77.1719 Q566.9844,78.4063 567.875,79.2266 Q568.7656,80.0469 570.3594,80.0469 Q571.2969,80.0469 571.9531,79.7969 Q572.3438,79.6406 572.7656,79.2031 Q573.0313,78.9375 573.1797,78.8594 Q573.3281,78.7813 573.5313,78.7813 Q573.8594,78.7813 574.1172,79.0391 Q574.375,79.2969 574.375,79.6406 Q574.375,79.9844 574.0313,80.3906 Q573.5313,80.9688 572.7344,81.2969 Q571.6563,81.75 570.3594,81.75 Q568.8438,81.75 567.6406,81.125 Q566.6563,80.625 565.9688,79.5547 Q565.2813,78.4844 565.2813,77.2031 L565.2813,76.0469 Q565.2813,74.7188 565.8984,73.5703 Q566.5156,72.4219 567.6094,71.8047 Q568.7031,71.1875 569.9375,71.1875 Q570.6719,71.1875 571.3203,71.3516 Q571.9688,71.5156 572.5156,71.875 Z " fill="#000000"/><text fill="#000000" font-family="sans-serif" font-size="14" lengthAdjust="spacing" textLength="33" x="590.25" y="81.7285">Grille</text><line style="stroke:#181818;stroke-width:0.5;" x1="487.5" x2="693.5" y1="92" y2="92"/><polygon fill="none" points="497.5,101.3047,501.5,105.3047,497.5,109.3047,493.5,105.3047" style="stroke:#B38D22;stroke-width:1.0;"/><text fill="#000000" font-family="sans-serif" font-size="14" lengthAdjust="spacing" textLength="39" x="506.5" y="110.5332">code :</text><text fill="#D2453F" font-family="sans-serif" font-size="14" lengthAdjust="spacing" textLength="15" x="549.5" y="110.5332">int</text><polygon fill="none" points="497.5,118.9141,501.5,122.9141,497.5,126.9141,493.5,122.9141" style="stroke:#B38D22;stroke-width:1.0;"/><text fill="#000000" font-family="sans-serif" font-size="14" lengthAdjust="spacing" textLength="37" x="506.5" y="128.1426">mise :</text><text fill="#D2453F" font-family="sans-serif" font-size="14" lengthAdjust="spacing" textLength="27" x="547.5" y="128.1426">float</text><polygon fill="none" points="497.5,136.5234,501.5,140.5234,497.5,144.5234,493.5,140.5234" style="stroke:#B38D22;stroke-width:1.0;"/><text fill="#000000" font-family="sans-serif" font-size="14" lengthAdjust="spacing" textLength="99" x="506.5" y="145.752">nombresMises :</text><text fill="#D2453F" font-family="sans-serif" font-size="14" lengthAdjust="spacing" textLength="31" x="609.5" y="145.752">int[4]</text><line style="stroke:#181818;stroke-width:0.5;" x1="487.5" x2="693.5" y1="152.8281" y2="152.8281"/><rect fill="#F24D5C" height="6" style="stroke:#C82930;stroke-width:1.0;" width="6" x="494.5" y="164.1328"/><text fill="#000000" font-family="sans-serif" font-size="14" lengthAdjust="spacing" textLength="116" x="506.5" y="171.3613">setNombresMises(</text><text fill="#D2453F" font-family="sans-serif" font-size="14" lengthAdjust="spacing" textLength="23" x="622.5" y="171.3613">int[]</text><text fill="#000000" font-family="sans-serif" font-size="14" lengthAdjust="spacing" textLength="13" x="645.5" y="171.3613">) :</text><text fill="#008000" font-family="sans-serif" font-size="14" lengthAdjust="spacing" textLength="26" x="662.5" y="171.3613">void</text><ellipse cx="497.5" cy="184.7422" fill="#84BE84" rx="3" ry="3" style="stroke:#038048;stroke-width:1.0;"/><text fill="#000000" font-family="sans-serif" font-size="14" lengthAdjust="spacing" textLength="67" x="506.5" y="188.9707">getMise() :</text><text fill="#D2453F" font-family="sans-serif" font-size="14" lengthAdjust="spacing" textLength="27" x="577.5" y="188.9707">float</text><ellipse cx="497.5" cy="202.3516" fill="#84BE84" rx="3" ry="3" style="stroke:#038048;stroke-width:1.0;"/><text fill="#000000" font-family="sans-serif" font-size="14" lengthAdjust="spacing" textLength="130" x="506.5" y="206.5801">getNombresMises() :</text><text fill="#D2453F" font-family="sans-serif" font-size="14" lengthAdjust="spacing" textLength="23" x="640.5" y="206.5801">int[]</text><ellipse cx="497.5" cy="219.9609" fill="#84BE84" rx="3" ry="3" style="stroke:#038048;stroke-width:1.0;"/><text fill="#000000" font-family="sans-serif" font-size="14" lengthAdjust="spacing" textLength="72" x="506.5" y="224.1895">getCode() :</text><text fill="#D2453F" font-family="sans-serif" font-size="14" lengthAdjust="spacing" textLength="15" x="582.5" y="224.1895">int</text></g><!--MD5=[171608ebe1c78cc82ba2c9b0f9738730]
class GrilleValidator--><g id="elem_GrilleValidator"><rect codeLine="14" fill="#F1F1F1" height="57.6094" id="GrilleValidator" rx="2.5" ry="2.5" style="stroke:#181818;stroke-width:0.5;" width="167" x="289" y="418.5"/><ellipse cx="324.7" cy="434.5" fill="#ADD1B2" rx="11" ry="11" style="stroke:#181818;stroke-width:1.0;"/><path d="M327.4656,430.375 Q327.6219,430.1563 327.8094,430.0469 Q327.9969,429.9375 328.2156,429.9375 Q328.5906,429.9375 328.825,430.1953 Q329.0594,430.4531 329.0594,431.0625 L329.0594,432.5156 Q329.0594,433.125 328.825,433.3906 Q328.5906,433.6563 328.2156,433.6563 Q327.8719,433.6563 327.6688,433.4531 Q327.4656,433.2656 327.3563,432.75 Q327.3094,432.3906 327.1219,432.2031 Q326.7938,431.8281 326.1844,431.6094 Q325.575,431.3906 324.95,431.3906 Q324.1844,431.3906 323.5516,431.7188 Q322.9188,432.0469 322.4266,432.7969 Q321.9344,433.5469 321.9344,434.5781 L321.9344,435.6719 Q321.9344,436.9063 322.825,437.7266 Q323.7156,438.5469 325.3094,438.5469 Q326.2469,438.5469 326.9031,438.2969 Q327.2938,438.1406 327.7156,437.7031 Q327.9813,437.4375 328.1297,437.3594 Q328.2781,437.2813 328.4813,437.2813 Q328.8094,437.2813 329.0672,437.5391 Q329.325,437.7969 329.325,438.1406 Q329.325,438.4844 328.9813,438.8906 Q328.4813,439.4688 327.6844,439.7969 Q326.6063,440.25 325.3094,440.25 Q323.7938,440.25 322.5906,439.625 Q321.6063,439.125 320.9188,438.0547 Q320.2313,436.9844 320.2313,435.7031 L320.2313,434.5469 Q320.2313,433.2188 320.8484,432.0703 Q321.4656,430.9219 322.5594,430.3047 Q323.6531,429.6875 324.8875,429.6875 Q325.6219,429.6875 326.2703,429.8516 Q326.9188,430.0156 327.4656,430.375 Z " fill="#000000"/><text fill="#000000" font-family="sans-serif" font-size="14" lengthAdjust="spacing" textLength="89" x="343.3" y="440.2285">GrilleValidator</text><line style="stroke:#181818;stroke-width:0.5;" x1="290" x2="455" y1="450.5" y2="450.5"/><ellipse cx="300" cy="464.8047" fill="#84BE84" rx="3" ry="3" style="stroke:#038048;stroke-width:1.0;"/><text fill="#000000" font-family="sans-serif" font-size="14" lengthAdjust="spacing" textLength="75" x="309" y="469.0332">checkEntry(</text><text fill="#D2453F" font-family="sans-serif" font-size="14" lengthAdjust="spacing" textLength="23" x="384" y="469.0332">int[]</text><text fill="#000000" font-family="sans-serif" font-size="14" lengthAdjust="spacing" textLength="13" x="407" y="469.0332">) :</text><text fill="#008000" font-family="sans-serif" font-size="14" lengthAdjust="spacing" textLength="26" x="424" y="469.0332">void</text></g><!--MD5=[4cc34a57c88100f048217fa3986c0ee8]
class SuperGrille--><g id="elem_SuperGrille"><rect codeLine="18" fill="#F1F1F1" height="100.8281" id="SuperGrille" rx="2.5" ry="2.5" style="stroke:#181818;stroke-width:0.5;" width="206" x="491.5" y="397"/><ellipse cx="554.75" cy="413" fill="#ADD1B2" rx="11" ry="11" style="stroke:#181818;stroke-width:1.0;"/><path d="M557.5156,408.875 Q557.6719,408.6563 557.8594,408.5469 Q558.0469,408.4375 558.2656,408.4375 Q558.6406,408.4375 558.875,408.6953 Q559.1094,408.9531 559.1094,409.5625 L559.1094,411.0156 Q559.1094,411.625 558.875,411.8906 Q558.6406,412.1563 558.2656,412.1563 Q557.9219,412.1563 557.7188,411.9531 Q557.5156,411.7656 557.4063,411.25 Q557.3594,410.8906 557.1719,410.7031 Q556.8438,410.3281 556.2344,410.1094 Q555.625,409.8906 555,409.8906 Q554.2344,409.8906 553.6016,410.2188 Q552.9688,410.5469 552.4766,411.2969 Q551.9844,412.0469 551.9844,413.0781 L551.9844,414.1719 Q551.9844,415.4063 552.875,416.2266 Q553.7656,417.0469 555.3594,417.0469 Q556.2969,417.0469 556.9531,416.7969 Q557.3438,416.6406 557.7656,416.2031 Q558.0313,415.9375 558.1797,415.8594 Q558.3281,415.7813 558.5313,415.7813 Q558.8594,415.7813 559.1172,416.0391 Q559.375,416.2969 559.375,416.6406 Q559.375,416.9844 559.0313,417.3906 Q558.5313,417.9688 557.7344,418.2969 Q556.6563,418.75 555.3594,418.75 Q553.8438,418.75 552.6406,418.125 Q551.6563,417.625 550.9688,416.5547 Q550.2813,415.4844 550.2813,414.2031 L550.2813,413.0469 Q550.2813,411.7188 550.8984,410.5703 Q551.5156,409.4219 552.6094,408.8047 Q553.7031,408.1875 554.9375,408.1875 Q555.6719,408.1875 556.3203,408.3516 Q556.9688,408.5156 557.5156,408.875 Z " fill="#000000"/><text fill="#000000" font-family="sans-serif" font-size="14" lengthAdjust="spacing" textLength="71" x="575.25" y="418.7285">SuperGrille</text><line style="stroke:#181818;stroke-width:0.5;" x1="492.5" x2="696.5" y1="429" y2="429"/><rect fill="none" height="6" style="stroke:#C82930;stroke-width:1.0;" width="6" x="499.5" y="440.3047"/><text fill="#000000" font-family="sans-serif" font-size="14" lengthAdjust="spacing" textLength="105" x="511.5" y="447.5332">numeroChance :</text><text fill="#D2453F" font-family="sans-serif" font-size="14" lengthAdjust="spacing" textLength="15" x="620.5" y="447.5332">int</text><line style="stroke:#181818;stroke-width:0.5;" x1="492.5" x2="696.5" y1="454.6094" y2="454.6094"/><rect fill="#F24D5C" height="6" style="stroke:#C82930;stroke-width:1.0;" width="6" x="499.5" y="465.9141"/><text fill="#000000" font-family="sans-serif" font-size="14" lengthAdjust="spacing" textLength="122" x="511.5" y="473.1426">setNumeroChance(</text><text fill="#D2453F" font-family="sans-serif" font-size="14" lengthAdjust="spacing" textLength="15" x="633.5" y="473.1426">int</text><text fill="#000000" font-family="sans-serif" font-size="14" lengthAdjust="spacing" textLength="13" x="648.5" y="473.1426">) :</text><text fill="#008000" font-family="sans-serif" font-size="14" lengthAdjust="spacing" textLength="26" x="665.5" y="473.1426">void</text><ellipse cx="502.5" cy="486.5234" fill="#84BE84" rx="3" ry="3" style="stroke:#038048;stroke-width:1.0;"/><text fill="#000000" font-family="sans-serif" font-size="14" lengthAdjust="spacing" textLength="136" x="511.5" y="490.752">getNumeroChance() :</text><text fill="#D2453F" font-family="sans-serif" font-size="14" lengthAdjust="spacing" textLength="15" x="651.5" y="490.752">int</text></g><!--MD5=[cc179a9246c328d29e88a3a3014f8a3c]
class SuperGrilleValidator--><g id="elem_SuperGrilleValidator"><rect codeLine="24" fill="#F1F1F1" height="57.6094" id="SuperGrilleValidator" rx="2.5" ry="2.5" style="stroke:#181818;stroke-width:0.5;" width="224" x="260.5" y="611"/><ellipse cx="304.75" cy="627" fill="#ADD1B2" rx="11" ry="11" style="stroke:#181818;stroke-width:1.0;"/><path d="M307.5156,622.875 Q307.6719,622.6563 307.8594,622.5469 Q308.0469,622.4375 308.2656,622.4375 Q308.6406,622.4375 308.875,622.6953 Q309.1094,622.9531 309.1094,623.5625 L309.1094,625.0156 Q309.1094,625.625 308.875,625.8906 Q308.6406,626.1563 308.2656,626.1563 Q307.9219,626.1563 307.7188,625.9531 Q307.5156,625.7656 307.4063,625.25 Q307.3594,624.8906 307.1719,624.7031 Q306.8438,624.3281 306.2344,624.1094 Q305.625,623.8906 305,623.8906 Q304.2344,623.8906 303.6016,624.2188 Q302.9688,624.5469 302.4766,625.2969 Q301.9844,626.0469 301.9844,627.0781 L301.9844,628.1719 Q301.9844,629.4063 302.875,630.2266 Q303.7656,631.0469 305.3594,631.0469 Q306.2969,631.0469 306.9531,630.7969 Q307.3438,630.6406 307.7656,630.2031 Q308.0313,629.9375 308.1797,629.8594 Q308.3281,629.7813 308.5313,629.7813 Q308.8594,629.7813 309.1172,630.0391 Q309.375,630.2969 309.375,630.6406 Q309.375,630.9844 309.0313,631.3906 Q308.5313,631.9688 307.7344,632.2969 Q306.6563,632.75 305.3594,632.75 Q303.8438,632.75 302.6406,632.125 Q301.6563,631.625 300.9688,630.5547 Q300.2813,629.4844 300.2813,628.2031 L300.2813,627.0469 Q300.2813,625.7188 300.8984,624.5703 Q301.5156,623.4219 302.6094,622.8047 Q303.7031,622.1875 304.9375,622.1875 Q305.6719,622.1875 306.3203,622.3516 Q306.9688,622.5156 307.5156,622.875 Z " fill="#000000"/><text fill="#000000" font-family="sans-serif" font-size="14" lengthAdjust="spacing" textLength="127" x="325.25" y="632.7285">SuperGrilleValidator</text><line style="stroke:#181818;stroke-width:0.5;" x1="261.5" x2="483.5" y1="643" y2="643"/><ellipse cx="271.5" cy="657.3047" fill="#84BE84" rx="3" ry="3" style="stroke:#038048;stroke-width:1.0;"/><text fill="#000000" font-family="sans-serif" font-size="14" lengthAdjust="spacing" textLength="140" x="280.5" y="661.5332">checkNumeroChance(</text><text fill="#D2453F" font-family="sans-serif" font-size="14" lengthAdjust="spacing" textLength="15" x="420.5" y="661.5332">int</text><text fill="#000000" font-family="sans-serif" font-size="14" lengthAdjust="spacing" textLength="13" x="435.5" y="661.5332">) :</text><text fill="#008000" font-family="sans-serif" font-size="14" lengthAdjust="spacing" textLength="26" x="452.5" y="661.5332">void</text></g><!--MD5=[53a2e9943b3282141f5ff0bc1e0ae184]
class Tolo--><g id="elem_Tolo"><rect codeLine="29" fill="#F1F1F1" height="276.9219" id="Tolo" rx="2.5" ry="2.5" style="stroke:#181818;stroke-width:0.5;" width="287" x="9" y="7"/><ellipse cx="134.25" cy="23" fill="#ADD1B2" rx="11" ry="11" style="stroke:#181818;stroke-width:1.0;"/><path d="M137.0156,18.875 Q137.1719,18.6563 137.3594,18.5469 Q137.5469,18.4375 137.7656,18.4375 Q138.1406,18.4375 138.375,18.6953 Q138.6094,18.9531 138.6094,19.5625 L138.6094,21.0156 Q138.6094,21.625 138.375,21.8906 Q138.1406,22.1563 137.7656,22.1563 Q137.4219,22.1563 137.2188,21.9531 Q137.0156,21.7656 136.9063,21.25 Q136.8594,20.8906 136.6719,20.7031 Q136.3438,20.3281 135.7344,20.1094 Q135.125,19.8906 134.5,19.8906 Q133.7344,19.8906 133.1016,20.2188 Q132.4688,20.5469 131.9766,21.2969 Q131.4844,22.0469 131.4844,23.0781 L131.4844,24.1719 Q131.4844,25.4063 132.375,26.2266 Q133.2656,27.0469 134.8594,27.0469 Q135.7969,27.0469 136.4531,26.7969 Q136.8438,26.6406 137.2656,26.2031 Q137.5313,25.9375 137.6797,25.8594 Q137.8281,25.7813 138.0313,25.7813 Q138.3594,25.7813 138.6172,26.0391 Q138.875,26.2969 138.875,26.6406 Q138.875,26.9844 138.5313,27.3906 Q138.0313,27.9688 137.2344,28.2969 Q136.1563,28.75 134.8594,28.75 Q133.3438,28.75 132.1406,28.125 Q131.1563,27.625 130.4688,26.5547 Q129.7813,25.4844 129.7813,24.2031 L129.7813,23.0469 Q129.7813,21.7188 130.3984,20.5703 Q131.0156,19.4219 132.1094,18.8047 Q133.2031,18.1875 134.4375,18.1875 Q135.1719,18.1875 135.8203,18.3516 Q136.4688,18.5156 137.0156,18.875 Z " fill="#000000"/><text fill="#000000" font-family="sans-serif" font-size="14" lengthAdjust="spacing" textLength="28" x="154.75" y="28.7285">Tolo</text><line style="stroke:#181818;stroke-width:0.5;" x1="10" x2="295" y1="39" y2="39"/><ellipse cx="20" cy="53.3047" fill="none" rx="3" ry="3" style="stroke:#038048;stroke-width:1.0;"/><text fill="#000000" font-family="sans-serif" font-size="14" lengthAdjust="spacing" text-decoration="underline" textLength="152" x="29" y="57.5332">PERMITTED_NUMBER :</text><text fill="#D2453F" font-family="sans-serif" font-size="14" lengthAdjust="spacing" text-decoration="underline" textLength="15" x="185" y="57.5332">int</text><ellipse cx="20" cy="70.9141" fill="none" rx="3" ry="3" style="stroke:#038048;stroke-width:1.0;"/><text fill="#000000" font-family="sans-serif" font-size="14" lengthAdjust="spacing" text-decoration="underline" textLength="110" x="29" y="75.1426">UPPER_BOUND :</text><text fill="#D2453F" font-family="sans-serif" font-size="14" lengthAdjust="spacing" text-decoration="underline" textLength="15" x="143" y="75.1426">int</text><ellipse cx="20" cy="88.5234" fill="none" rx="3" ry="3" style="stroke:#038048;stroke-width:1.0;"/><text fill="#000000" font-family="sans-serif" font-size="14" lengthAdjust="spacing" text-decoration="underline" textLength="115" x="29" y="92.752">LOWER_BOUND :</text><text fill="#D2453F" font-family="sans-serif" font-size="14" lengthAdjust="spacing" text-decoration="underline" textLength="15" x="148" y="92.752">int</text><polygon fill="none" points="20,101.1328,24,105.1328,20,109.1328,16,105.1328" style="stroke:#B38D22;stroke-width:1.0;"/><text fill="#000000" font-family="sans-serif" font-size="14" lengthAdjust="spacing" textLength="95" x="29" y="110.3613">numerosTires :</text><text fill="#D2453F" font-family="sans-serif" font-size="14" lengthAdjust="spacing" textLength="31" x="128" y="110.3613">int[4]</text><line style="stroke:#181818;stroke-width:0.5;" x1="10" x2="295" y1="117.4375" y2="117.4375"/><ellipse cx="20" cy="131.7422" fill="#84BE84" rx="3" ry="3" style="stroke:#038048;stroke-width:1.0;"/><text fill="#000000" font-family="sans-serif" font-size="14" lengthAdjust="spacing" textLength="115" x="29" y="135.9707">effectuerTirage() :</text><text fill="#008000" font-family="sans-serif" font-size="14" lengthAdjust="spacing" textLength="26" x="148" y="135.9707">void</text><ellipse cx="20" cy="149.3516" fill="#84BE84" rx="3" ry="3" style="stroke:#038048;stroke-width:1.0;"/><text fill="#000000" font-family="sans-serif" font-size="14" lengthAdjust="spacing" textLength="112" x="29" y="153.5801">setNumerosTires(</text><text fill="#D2453F" font-family="sans-serif" font-size="14" lengthAdjust="spacing" textLength="23" x="141" y="153.5801">int[]</text><text fill="#000000" font-family="sans-serif" font-size="14" lengthAdjust="spacing" textLength="13" x="164" y="153.5801">) :</text><text fill="#008000" font-family="sans-serif" font-size="14" lengthAdjust="spacing" textLength="26" x="181" y="153.5801">void</text><ellipse cx="20" cy="166.9609" fill="#84BE84" rx="3" ry="3" style="stroke:#038048;stroke-width:1.0;"/><text fill="#000000" font-family="sans-serif" font-size="14" lengthAdjust="spacing" textLength="82" x="29" y="171.1895">ajouterGrille(</text><text fill="#428ECD" font-family="sans-serif" font-size="14" lengthAdjust="spacing" textLength="33" x="111" y="171.1895">Grille</text><text fill="#000000" font-family="sans-serif" font-size="14" lengthAdjust="spacing" textLength="13" x="144" y="171.1895">) :</text><text fill="#008000" font-family="sans-serif" font-size="14" lengthAdjust="spacing" textLength="26" x="161" y="171.1895">void</text><ellipse cx="20" cy="184.5703" fill="#84BE84" rx="3" ry="3" style="stroke:#038048;stroke-width:1.0;"/><text fill="#000000" font-family="sans-serif" font-size="14" lengthAdjust="spacing" textLength="79" x="29" y="188.7988">obtenirGain(</text><text fill="#D2453F" font-family="sans-serif" font-size="14" lengthAdjust="spacing" textLength="15" x="108" y="188.7988">int</text><text fill="#000000" font-family="sans-serif" font-size="14" lengthAdjust="spacing" textLength="13" x="123" y="188.7988">) :</text><text fill="#D2453F" font-family="sans-serif" font-size="14" lengthAdjust="spacing" textLength="27" x="140" y="188.7988">float</text><ellipse cx="20" cy="202.1797" fill="#84BE84" rx="3" ry="3" style="stroke:#038048;stroke-width:1.0;"/><text fill="#000000" font-family="sans-serif" font-size="14" lengthAdjust="spacing" textLength="79" x="29" y="206.4082">obtenirGain(</text><text fill="#428ECD" font-family="sans-serif" font-size="14" lengthAdjust="spacing" textLength="33" x="108" y="206.4082">Grille</text><text fill="#000000" font-family="sans-serif" font-size="14" lengthAdjust="spacing" textLength="13" x="141" y="206.4082">) :</text><text fill="#D2453F" font-family="sans-serif" font-size="14" lengthAdjust="spacing" textLength="27" x="158" y="206.4082">float</text><polygon fill="#FFFF44" points="20,214.7891,24,218.7891,20,222.7891,16,218.7891" style="stroke:#B38D22;stroke-width:1.0;"/><text fill="#000000" font-family="sans-serif" font-size="14" lengthAdjust="spacing" textLength="145" x="29" y="224.0176">rechercherGrilleJouee(</text><text fill="#D2453F" font-family="sans-serif" font-size="14" lengthAdjust="spacing" textLength="15" x="174" y="224.0176">int</text><text fill="#000000" font-family="sans-serif" font-size="14" lengthAdjust="spacing" textLength="13" x="189" y="224.0176">) :</text><text fill="#428ECD" font-family="sans-serif" font-size="14" lengthAdjust="spacing" textLength="33" x="206" y="224.0176">Grille</text><rect fill="#F24D5C" height="6" style="stroke:#C82930;stroke-width:1.0;" width="6" x="17" y="234.3984"/><text fill="#000000" font-family="sans-serif" font-size="14" lengthAdjust="spacing" textLength="122" x="29" y="241.627">getCalculatedGain(</text><text fill="#D2453F" font-family="sans-serif" font-size="14" lengthAdjust="spacing" textLength="27" x="151" y="241.627">float</text><text fill="#000000" font-family="sans-serif" font-size="14" lengthAdjust="spacing" textLength="4" x="178" y="241.627">,</text><text fill="#D2453F" font-family="sans-serif" font-size="14" lengthAdjust="spacing" textLength="15" x="186" y="241.627">int</text><text fill="#000000" font-family="sans-serif" font-size="14" lengthAdjust="spacing" textLength="13" x="201" y="241.627">) :</text><text fill="#D2453F" font-family="sans-serif" font-size="14" lengthAdjust="spacing" textLength="27" x="218" y="241.627">float</text><rect fill="#F24D5C" height="6" style="stroke:#C82930;stroke-width:1.0;" width="6" x="17" y="252.0078"/><text fill="#000000" font-family="sans-serif" font-size="14" lengthAdjust="spacing" textLength="175" x="29" y="259.2363">getCorrespondingNumbers(</text><text fill="#D2453F" font-family="sans-serif" font-size="14" lengthAdjust="spacing" textLength="23" x="204" y="259.2363">int[]</text><text fill="#000000" font-family="sans-serif" font-size="14" lengthAdjust="spacing" textLength="4" x="227" y="259.2363">,</text><text fill="#D2453F" font-family="sans-serif" font-size="14" lengthAdjust="spacing" textLength="23" x="235" y="259.2363">int[]</text><text fill="#000000" font-family="sans-serif" font-size="14" lengthAdjust="spacing" textLength="13" x="258" y="259.2363">) :</text><text fill="#D2453F" font-family="sans-serif" font-size="14" lengthAdjust="spacing" textLength="15" x="275" y="259.2363">int</text><rect fill="#F24D5C" height="6" style="stroke:#C82930;stroke-width:1.0;" width="6" x="17" y="269.6172"/><text fill="#000000" font-family="sans-serif" font-size="14" lengthAdjust="spacing" textLength="184" x="29" y="276.8457">generateRandomNumbers() :</text><text fill="#D2453F" font-family="sans-serif" font-size="14" lengthAdjust="spacing" textLength="23" x="217" y="276.8457">int[]</text></g><!--MD5=[891bf08ce8b01dab1731c75d9a6585c0]
class SuperTolo--><g id="elem_SuperTolo"><rect codeLine="46" fill="#F1F1F1" height="171.2656" id="SuperTolo" rx="2.5" ry="2.5" style="stroke:#181818;stroke-width:0.5;" width="220" x="33.5" y="362"/><ellipse cx="106.25" cy="378" fill="#ADD1B2" rx="11" ry="11" style="stroke:#181818;stroke-width:1.0;"/><path d="M109.0156,373.875 Q109.1719,373.6563 109.3594,373.5469 Q109.5469,373.4375 109.7656,373.4375 Q110.1406,373.4375 110.375,373.6953 Q110.6094,373.9531 110.6094,374.5625 L110.6094,376.0156 Q110.6094,376.625 110.375,376.8906 Q110.1406,377.1563 109.7656,377.1563 Q109.4219,377.1563 109.2188,376.9531 Q109.0156,376.7656 108.9063,376.25 Q108.8594,375.8906 108.6719,375.7031 Q108.3438,375.3281 107.7344,375.1094 Q107.125,374.8906 106.5,374.8906 Q105.7344,374.8906 105.1016,375.2188 Q104.4688,375.5469 103.9766,376.2969 Q103.4844,377.0469 103.4844,378.0781 L103.4844,379.1719 Q103.4844,380.4063 104.375,381.2266 Q105.2656,382.0469 106.8594,382.0469 Q107.7969,382.0469 108.4531,381.7969 Q108.8438,381.6406 109.2656,381.2031 Q109.5313,380.9375 109.6797,380.8594 Q109.8281,380.7813 110.0313,380.7813 Q110.3594,380.7813 110.6172,381.0391 Q110.875,381.2969 110.875,381.6406 Q110.875,381.9844 110.5313,382.3906 Q110.0313,382.9688 109.2344,383.2969 Q108.1563,383.75 106.8594,383.75 Q105.3438,383.75 104.1406,383.125 Q103.1563,382.625 102.4688,381.5547 Q101.7813,380.4844 101.7813,379.2031 L101.7813,378.0469 Q101.7813,376.7188 102.3984,375.5703 Q103.0156,374.4219 104.1094,373.8047 Q105.2031,373.1875 106.4375,373.1875 Q107.1719,373.1875 107.8203,373.3516 Q108.4688,373.5156 109.0156,373.875 Z " fill="#000000"/><text fill="#000000" font-family="sans-serif" font-size="14" lengthAdjust="spacing" textLength="66" x="126.75" y="383.7285">SuperTolo</text><line style="stroke:#181818;stroke-width:0.5;" x1="34.5" x2="252.5" y1="394" y2="394"/><ellipse cx="44.5" cy="408.3047" fill="none" rx="3" ry="3" style="stroke:#038048;stroke-width:1.0;"/><text fill="#000000" font-family="sans-serif" font-size="14" lengthAdjust="spacing" text-decoration="underline" textLength="168" x="53.5" y="412.5332">LOWER_LUCK_NUMBER :</text><text fill="#D2453F" font-family="sans-serif" font-size="14" lengthAdjust="spacing" text-decoration="underline" textLength="15" x="225.5" y="412.5332">int</text><ellipse cx="44.5" cy="425.9141" fill="none" rx="3" ry="3" style="stroke:#038048;stroke-width:1.0;"/><text fill="#000000" font-family="sans-serif" font-size="14" lengthAdjust="spacing" text-decoration="underline" textLength="163" x="53.5" y="430.1426">UPPER_LUCK_NUMBER :</text><text fill="#D2453F" font-family="sans-serif" font-size="14" lengthAdjust="spacing" text-decoration="underline" textLength="15" x="220.5" y="430.1426">int</text><rect fill="none" height="6" style="stroke:#C82930;stroke-width:1.0;" width="6" x="41.5" y="440.5234"/><text fill="#000000" font-family="sans-serif" font-size="14" lengthAdjust="spacing" textLength="105" x="53.5" y="447.752">numeroChance :</text><text fill="#D2453F" font-family="sans-serif" font-size="14" lengthAdjust="spacing" textLength="15" x="162.5" y="447.752">int</text><line style="stroke:#181818;stroke-width:0.5;" x1="34.5" x2="252.5" y1="454.8281" y2="454.8281"/><ellipse cx="44.5" cy="469.1328" fill="#84BE84" rx="3" ry="3" style="stroke:#038048;stroke-width:1.0;"/><text fill="#000000" font-family="sans-serif" font-size="14" lengthAdjust="spacing" textLength="79" x="53.5" y="473.3613">obtenirGain(</text><text fill="#428ECD" font-family="sans-serif" font-size="14" lengthAdjust="spacing" textLength="71" x="132.5" y="473.3613">SuperGrille</text><text fill="#000000" font-family="sans-serif" font-size="14" lengthAdjust="spacing" textLength="13" x="203.5" y="473.3613">) :</text><text fill="#D2453F" font-family="sans-serif" font-size="14" lengthAdjust="spacing" textLength="27" x="220.5" y="473.3613">float</text><ellipse cx="44.5" cy="486.7422" fill="#84BE84" rx="3" ry="3" style="stroke:#038048;stroke-width:1.0;"/><text fill="#000000" font-family="sans-serif" font-size="14" lengthAdjust="spacing" textLength="115" x="53.5" y="490.9707">effectuerTirage() :</text><text fill="#008000" font-family="sans-serif" font-size="14" lengthAdjust="spacing" textLength="26" x="172.5" y="490.9707">void</text><ellipse cx="44.5" cy="504.3516" fill="#84BE84" rx="3" ry="3" style="stroke:#038048;stroke-width:1.0;"/><text fill="#000000" font-family="sans-serif" font-size="14" lengthAdjust="spacing" textLength="79" x="53.5" y="508.5801">obtenirGain(</text><text fill="#428ECD" font-family="sans-serif" font-size="14" lengthAdjust="spacing" textLength="71" x="132.5" y="508.5801">SuperGrille</text><text fill="#000000" font-family="sans-serif" font-size="14" lengthAdjust="spacing" textLength="13" x="203.5" y="508.5801">) :</text><text fill="#D2453F" font-family="sans-serif" font-size="14" lengthAdjust="spacing" textLength="15" x="220.5" y="508.5801">int</text><ellipse cx="44.5" cy="521.9609" fill="#84BE84" rx="3" ry="3" style="stroke:#038048;stroke-width:1.0;"/><text fill="#000000" font-family="sans-serif" font-size="14" lengthAdjust="spacing" textLength="122" x="53.5" y="526.1895">setNumeroChance(</text><text fill="#D2453F" font-family="sans-serif" font-size="14" lengthAdjust="spacing" textLength="15" x="175.5" y="526.1895">int</text><text fill="#000000" font-family="sans-serif" font-size="14" lengthAdjust="spacing" textLength="13" x="190.5" y="526.1895">) :</text><text fill="#008000" font-family="sans-serif" font-size="14" lengthAdjust="spacing" textLength="26" x="207.5" y="526.1895">void</text></g><!--MD5=[140539b05ddfec0a9ae453889dcb6f4c]
reverse link Tolo to SuperTolo--><g id="link_Tolo_SuperTolo"><path codeLine="57" d="M147.76,304.43 C147.17,324.23 146.58,343.85 146.04,361.9 " fill="none" id="Tolo-backto-SuperTolo" style="stroke:#181818;stroke-width:1.0;"/><polygon fill="none" points="140.77,303.99,148.37,284.21,154.77,304.41,140.77,303.99" style="stroke:#181818;stroke-width:1.0;"/></g><!--MD5=[aecdf808e248c1364f0e1e8697d7d90a]
reverse link Grille to SuperGrille--><g id="link_Grille_SuperGrille"><path codeLine="58" d="M591.9,251.52 C592.56,300.8 593.31,357.21 593.84,396.64 " fill="none" id="Grille-backto-SuperGrille" style="stroke:#181818;stroke-width:1.0;"/><polygon fill="none" points="584.9,251.36,591.63,231.27,598.9,251.17,584.9,251.36" style="stroke:#181818;stroke-width:1.0;"/></g><!--MD5=[fd00aeef4a2848fb6121ac3f2a8b8b96]
reverse link GrilleValidator to SuperGrilleValidator--><g id="link_GrilleValidator_SuperGrilleValidator"><path codeLine="59" d="M372.5,496.72 C372.5,532.75 372.5,580.76 372.5,610.78 " fill="none" id="GrilleValidator-backto-SuperGrilleValidator" style="stroke:#181818;stroke-width:1.0;"/><polygon fill="none" points="365.5,496.61,372.5,476.61,379.5,496.61,365.5,496.61" style="stroke:#181818;stroke-width:1.0;"/></g><!--MD5=[0117ed81097c878223c39b4b6025bfbf]
link Grille to GrilleValidator--><g id="link_Grille_GrilleValidator"><path codeLine="61" d="M528.9,231.27 C484.63,292.2 427.39,370.96 395.88,414.32 " fill="none" id="Grille-to-GrilleValidator" style="stroke:#181818;stroke-width:1.0;stroke-dasharray:7.0,7.0;"/><polygon fill="#181818" points="392.92,418.4,401.4506,413.4776,395.8626,414.3576,394.9826,408.7696,392.92,418.4" style="stroke:#181818;stroke-width:1.0;"/><text fill="#000000" font-family="sans-serif" font-size="13" lengthAdjust="spacing" textLength="35" x="468.5" y="328.4951">«use»</text></g><!--MD5=[5c4518521f1220a18b3d2e0286f7a908]
link Tolo to GrilleValidator--><g id="link_Tolo_GrilleValidator"><path codeLine="62" d="M253.49,284.21 C288.94,332.56 325.66,382.63 348.76,414.13 " fill="none" id="Tolo-to-GrilleValidator" style="stroke:#181818;stroke-width:1.0;stroke-dasharray:7.0,7.0;"/><polygon fill="#181818" points="351.79,418.26,349.6889,408.6379,348.8313,414.2293,343.2399,413.3718,351.79,418.26" style="stroke:#181818;stroke-width:1.0;"/><text fill="#000000" font-family="sans-serif" font-size="13" lengthAdjust="spacing" textLength="35" x="283.5" y="328.4951">«use»</text></g><!--MD5=[ee72d51d6c8b08607156e9ee8b90e143]
link SuperGrille to SuperGrilleValidator--><g id="link_SuperGrille_SuperGrilleValidator"><path codeLine="63" d="M536.75,498.05 C496.51,532.59 444.02,577.63 409.34,607.39 " fill="none" id="SuperGrille-to-SuperGrilleValidator" style="stroke:#181818;stroke-width:1.0;stroke-dasharray:7.0,7.0;"/><polygon fill="#181818" points="405.2,610.94,414.6312,608.1023,408.9902,607.679,409.4136,602.038,405.2,610.94" style="stroke:#181818;stroke-width:1.0;"/><text fill="#000000" font-family="sans-serif" font-size="13" lengthAdjust="spacing" textLength="35" x="457.5" y="577.4951">«use»</text></g><!--MD5=[04b69a21d256e5ebd752ff395de6d550]
link SuperTolo to SuperGrilleValidator--><g id="link_SuperTolo_SuperGrilleValidator"><path codeLine="64" d="M245.28,533.17 C277.14,559.67 310.33,587.28 334.82,607.66 " fill="none" id="SuperTolo-to-SuperGrilleValidator" style="stroke:#181818;stroke-width:1.0;stroke-dasharray:7.0,7.0;"/><polygon fill="#181818" points="338.67,610.86,334.3135,602.027,334.8277,607.6605,329.1943,608.1747,338.67,610.86" style="stroke:#181818;stroke-width:1.0;"/><text fill="#000000" font-family="sans-serif" font-size="13" lengthAdjust="spacing" textLength="35" x="298.5" y="577.4951">«use»</text></g><!--MD5=[e6abc33c98f68a16257d40ab831105bf]
reverse link Tolo to Grille--><g id="link_Tolo_Grille"><path codeLine="66" d="M309.45,145.5 C368.28,145.5 433.62,145.5 486.49,145.5 " fill="none" id="Tolo-backto-Grille" style="stroke:#181818;stroke-width:1.0;"/><polygon fill="#181818" points="296.22,145.5,302.22,149.5,308.22,145.5,302.22,141.5,296.22,145.5" style="stroke:#181818;stroke-width:1.0;"/><text fill="#000000" font-family="sans-serif" font-size="13" lengthAdjust="spacing" textLength="83" x="314.25" y="138.9951">grillesJouees :</text><text fill="#428ECD" font-family="sans-serif" font-size="13" lengthAdjust="spacing" textLength="21" x="401.25" y="138.9951">List</text><text fill="#000000" font-family="sans-serif" font-size="13" lengthAdjust="spacing" textLength="8" x="422.25" y="138.9951">&lt;</text><text fill="#F69C3E" font-family="sans-serif" font-size="13" lengthAdjust="spacing" textLength="30" x="430.25" y="138.9951">Grille</text><text fill="#000000" font-family="sans-serif" font-size="13" lengthAdjust="spacing" textLength="8" x="460.25" y="138.9951">&gt;</text><text fill="#000000" font-family="sans-serif" font-size="13" lengthAdjust="spacing" textLength="20" x="458.4737" y="159.5606">0..*</text></g><!--MD5=[69bd0be05a9fe6135f28d54fab06b0b6]
@startuml

!includeurl https://raw.githubusercontent.com/manuvai/plantuml-utils/master/class_diagram_utils.puml

class Grille {
    #int(code)
    #float(mise)
    #member("int[4]", nombresMises)
    -void("setNombresMises(int[])")
    +float("getMise()")
    +member("int[]", "getNombresMises()")
    +int("getCode()")
}

class GrilleValidator {
    +void("checkEntry(int[])")
}

class SuperGrille {
    -int(numeroChance)
    -void("setNumeroChance(int)")
    +int("getNumeroChance()")
}

class SuperGrilleValidator {
    +void("checkNumeroChance(int)")

}

class Tolo {
    +{static} int(PERMITTED_NUMBER)
    +{static} int(UPPER_BOUND)
    +{static} int(LOWER_BOUND)
    #member("int[4]", numerosTires)

    +void("effectuerTirage()")
    +void("setNumerosTires(int[])")
    +void("ajouterGrille(Grille)")
    +float("obtenirGain(int)")
    +float("obtenirGain(Grille)")
    #member(Grille, "rechercherGrilleJouee(int)")
    -float("getCalculatedGain(float, int)")
    -int("getCorrespondingNumbers(int[], int[])")
    -member("int[]", "generateRandomNumbers()")
}

class SuperTolo {
    +{static} int(LOWER_LUCK_NUMBER)
    +{static} int(UPPER_LUCK_NUMBER)
    -int(numeroChance)

    +float("obtenirGain(SuperGrille)")
    +void("effectuerTirage()")
    +int("obtenirGain(SuperGrille)")
    +void("setNumeroChance(int)")
}

extends(SuperTolo, Tolo, up)
extends(SuperGrille, Grille, up)
extends(SuperGrilleValidator, GrilleValidator, up)

Grille ..> GrilleValidator : <<use>>
Tolo ..> GrilleValidator : <<use>>
SuperGrille ..> SuperGrilleValidator : <<use>>
SuperTolo ..> SuperGrilleValidator : <<use>>

Tolo *-right- "0..*" Grille : list(Grille, grillesJouees)

@enduml

@startuml


hide empty members
hide empty methods





















class Grille {
    #code : <color:#d2453f>int</color>
    #mise : <color:#d2453f>float</color>
    #nombresMises : <color:#d2453f>int[4]</color>
    -setNombresMises(<color:#d2453f>int[]</color>) : <color:Green>void</color>
    +getMise() : <color:#d2453f>float</color>
    +getNombresMises() : <color:#d2453f>int[]</color>
    +getCode() : <color:#d2453f>int</color>
}

class GrilleValidator {
    +checkEntry(<color:#d2453f>int[]</color>) : <color:Green>void</color>
}

class SuperGrille {
    -numeroChance : <color:#d2453f>int</color>
    -setNumeroChance(<color:#d2453f>int</color>) : <color:Green>void</color>
    +getNumeroChance() : <color:#d2453f>int</color>
}

class SuperGrilleValidator {
    +checkNumeroChance(<color:#d2453f>int</color>) : <color:Green>void</color>

}

class Tolo {
    +{static} PERMITTED_NUMBER : <color:#d2453f>int</color>
    +{static} UPPER_BOUND : <color:#d2453f>int</color>
    +{static} LOWER_BOUND : <color:#d2453f>int</color>
    #numerosTires : <color:#d2453f>int[4]</color>

    +effectuerTirage() : <color:Green>void</color>
    +setNumerosTires(<color:#d2453f>int[]</color>) : <color:Green>void</color>
    +ajouterGrille(<color:#428ecd>Grille</color>) : <color:Green>void</color>
    +obtenirGain(<color:#d2453f>int</color>) : <color:#d2453f>float</color>
    +obtenirGain(<color:#428ecd>Grille</color>) : <color:#d2453f>float</color>
    #rechercherGrilleJouee(<color:#d2453f>int</color>) : <color:#428ecd>Grille</color>
    -getCalculatedGain(<color:#d2453f>float</color>, <color:#d2453f>int</color>) : <color:#d2453f>float</color>
    -getCorrespondingNumbers(<color:#d2453f>int[]</color>, <color:#d2453f>int[]</color>) : <color:#d2453f>int</color>
    -generateRandomNumbers() : <color:#d2453f>int[]</color>
}

class SuperTolo {
    +{static} LOWER_LUCK_NUMBER : <color:#d2453f>int</color>
    +{static} UPPER_LUCK_NUMBER : <color:#d2453f>int</color>
    -numeroChance : <color:#d2453f>int</color>

    +obtenirGain(<color:#428ecd>SuperGrille</color>) : <color:#d2453f>float</color>
    +effectuerTirage() : <color:Green>void</color>
    +obtenirGain(<color:#428ecd>SuperGrille</color>) : <color:#d2453f>int</color>
    +setNumeroChance(<color:#d2453f>int</color>) : <color:Green>void</color>
}

SuperTolo-up-|>Tolo
SuperGrille-up-|>Grille
SuperGrilleValidator-up-|>GrilleValidator

Grille ..> GrilleValidator : <<use>>
Tolo ..> GrilleValidator : <<use>>
SuperGrille ..> SuperGrilleValidator : <<use>>
SuperTolo ..> SuperGrilleValidator : <<use>>

Tolo *-right- "0..*" Grille : grillesJouees : <color:#428ecd>List</color><<color:#f69c3e>Grille</color>>

@enduml

PlantUML version 1.2022.7(Mon Aug 22 19:01:30 CEST 2022)
(GPL source distribution)
Java Runtime: Java(TM) SE Runtime Environment
JVM: Java HotSpot(TM) 64-Bit Server VM
Default Encoding: Cp1252
Language: fr
Country: FR
--></g></svg>